<svg xmlns="http://www.w3.org/2000/svg" xmlns:xlink="http://www.w3.org/1999/xlink" style="isolation:isolate" width="1624" height="1624" viewBox="0 0 1218 1218"><defs><clipPath id="_clipPath_rWtj0rtuYbDYO4GkwsTvP2oNwd4oCylR"><rect width="1218" height="1218"/></clipPath></defs><g clip-path="url(#_clipPath_rWtj0rtuYbDYO4GkwsTvP2oNwd4oCylR)"><path d="M 245.75 80 L 972.25 80 C 999.294 80 1021.25 101.956 1021.25 129 L 1021.25 1165 C 1021.25 1192.044 999.294 1214 972.25 1214 L 245.75 1214 C 218.706 1214 196.75 1192.044 196.75 1165 L 196.75 129 C 196.75 101.956 218.706 80 245.75 80 Z" style="stroke:none;fill:#2e79b9;stroke-miterlimit:10"/><rect width="678" height="958" x="270" y="168" fill="#FFF" transform="matrix(1,0,0,1,0,0)"/><path fill="#696969" d="M 378.5 197 L 839.5 197 Q 820.716 81.878 661.5 57 C 656.929 56.286 660.595 7 608.5 7 C 556.143 7 557.406 56.676 555.5 57 Q 378.643 87.071 378.5 197 Z"/><g><rect width="402.735" height="935.051" x="569.086" y="122.453" fill="#8BAF5A" transform="matrix(0.839,-0.544,0.544,0.839,-197.013,514.592)"/><rect width="283.83" height="785.261" x="628.931" y="197.261" fill="#B3E274" transform="matrix(0.839,-0.544,0.544,0.839,-196.902,514.791)"/><path fill="#8BAF5A" d="M 694.002 635.907 C 637.162 548.381 624.763 455.405 666.332 428.41 C 707.9 401.416 787.795 450.56 844.635 538.086 C 901.475 625.612 913.874 718.588 872.306 745.583 C 830.737 772.577 750.842 723.433 694.002 635.907 Z"/><rect width="405.742" height="234.553" x="568.628" y="473.172" fill="#CFCFCF" transform="matrix(0.839,-0.544,0.544,0.839,-197.1,515.237)"/></g><g><circle cx="557" cy="929" r="103" fill="#FFD70B" vector-effect="non-scaling-stroke"/><circle cx="333" cy="760" r="103" fill="#FFD70B" vector-effect="non-scaling-stroke"/></g></g></svg>